<?xml version="1.0" standalone="no"?>
<!DOCTYPE svg PUBLIC "-//W3C//DTD SVG 20010904//EN"
 "http://www.w3.org/TR/2001/REC-SVG-20010904/DTD/svg10.dtd">
<svg version="1.0" xmlns="http://www.w3.org/2000/svg"
 width="500.000000pt" height="500.000000pt" viewBox="0 0 500.000000 500.000000"
 preserveAspectRatio="xMidYMid meet">
<metadata>
Created by potrace 1.11, written by Peter Selinger 2001-2013
</metadata>
<g transform="translate(0.000000,500.000000) scale(0.100000,-0.100000)"
fill="#000000" stroke="none">
<path d="M1905 3591 c-3 -5 -2 -12 3 -15 5 -3 9 1 9 9 0 17 -3 19 -12 6z"/>
<path d="M1965 3575 c50 -18 57 -18 25 0 -14 8 -34 14 -45 14 -11 0 -2 -6 20
-14z"/>
<path d="M1878 3573 c10 -4 10 -8 0 -21 -12 -16 -11 -16 7 -2 11 8 7 0 -9 -18
-25 -27 -46 -34 -46 -16 0 3 5 2 12 -2 7 -4 8 -3 4 5 -4 6 -2 20 5 29 13 16
12 16 -7 0 -22 -19 -74 -105 -57 -95 6 4 13 1 16 -7 8 -19 -3 -28 -19 -15 -9
8 -16 5 -24 -12 -7 -12 -8 -19 -2 -15 5 3 13 -1 16 -10 4 -10 2 -13 -6 -8 -8
5 -9 2 -5 -9 3 -9 2 -19 -4 -22 -5 -4 -6 -11 -3 -17 5 -7 2 -8 -6 -3 -10 6
-12 4 -7 -9 5 -11 3 -15 -5 -10 -8 5 -9 2 -5 -9 3 -10 2 -17 -4 -17 -6 0 -7
-6 -3 -12 6 -10 4 -10 -8 0 -14 11 -18 10 -28 -7 -7 -14 -7 -27 -1 -39 8 -15
4 -26 -19 -54 -16 -19 -31 -46 -34 -59 -3 -13 -8 -35 -11 -49 -3 -14 -8 -32
-10 -40 -2 -8 -4 -15 -5 -15 -1 0 -3 -8 -6 -17 -2 -10 -6 -26 -8 -35 -3 -10
-5 -19 -6 -20 -2 -2 -4 -7 -5 -13 -1 -5 -4 -12 -5 -15 -1 -3 -4 -9 -5 -15 -1
-5 -4 -13 -5 -17 -1 -5 -2 -11 -1 -15 0 -5 -4 -8 -10 -8 -5 0 -8 -4 -4 -9 3
-5 1 -12 -5 -16 -6 -4 -8 -10 -5 -15 3 -5 1 -11 -5 -15 -6 -4 -8 -11 -5 -16 4
-5 1 -9 -5 -9 -6 0 -8 -4 -5 -10 3 -5 1 -10 -5 -10 -7 0 -10 -7 -6 -15 3 -8 1
-15 -5 -15 -6 0 -7 -4 -4 -10 3 -5 1 -10 -5 -10 -7 0 -10 -7 -6 -15 3 -8 1
-15 -5 -15 -6 0 -8 -4 -4 -9 3 -5 1 -12 -5 -16 -6 -4 -8 -10 -5 -15 3 -5 1
-11 -5 -15 -6 -4 -8 -11 -5 -16 4 -5 1 -9 -5 -9 -6 0 -9 -4 -5 -9 3 -5 1 -12
-5 -16 -6 -4 -8 -11 -5 -16 4 -5 1 -9 -5 -9 -6 0 -8 -4 -5 -10 3 -5 1 -10 -5
-10 -7 0 -10 -7 -6 -15 3 -8 1 -15 -5 -15 -6 0 -7 -4 -4 -10 3 -5 1 -10 -4
-10 -6 0 -11 5 -11 12 0 6 -3 9 -6 6 -3 -4 -1 -15 5 -27 8 -13 8 -22 1 -26 -6
-4 -8 -11 -5 -16 4 -5 1 -9 -5 -9 -6 0 -9 -4 -5 -9 3 -5 1 -12 -5 -16 -6 -4
-8 -11 -5 -16 4 -5 1 -9 -5 -9 -7 0 -10 -6 -7 -14 3 -8 3 -17 -1 -21 -4 -4 -8
-11 -8 -16 -1 -5 -3 -11 -4 -14 -1 -3 -4 -9 -5 -15 -1 -5 -4 -12 -5 -15 -1 -3
-4 -9 -5 -15 -1 -5 -4 -12 -5 -15 -1 -3 -4 -9 -5 -15 -1 -5 -4 -12 -5 -15 -1
-3 -4 -9 -5 -15 -1 -5 -3 -11 -5 -12 -1 -2 -3 -10 -5 -18 -4 -16 -12 -48 -20
-80 -13 -51 -27 -132 -28 -157 0 -7 -3 -13 -7 -13 -3 0 -5 -21 -4 -46 1 -25 0
-43 -4 -40 -10 10 -33 -34 -34 -64 -1 -17 -5 -30 -11 -30 -5 0 -7 9 -4 20 8
29 1 25 -17 -12 -18 -36 -20 -57 -6 -78 6 -10 7 -3 3 24 -5 31 -3 37 7 31 9
-6 11 -4 5 5 -5 9 -4 11 3 6 9 -5 9 -13 2 -26 -6 -10 -6 -21 -2 -24 5 -3 9
-26 9 -53 1 -38 0 -43 -7 -23 -8 23 -8 22 -7 -8 1 -18 7 -38 15 -44 7 -6 12
-7 11 -2 -5 30 1 37 19 21 18 -17 28 -92 10 -81 -5 3 -5 10 -2 16 4 7 2 8 -4
4 -9 -5 -8 -15 3 -35 8 -16 11 -31 8 -35 -4 -3 2 -13 13 -22 10 -8 12 -12 4
-8 -12 6 -12 4 1 -12 9 -10 14 -25 11 -33 -3 -8 0 -11 7 -7 7 5 9 1 5 -8 -3
-9 -11 -13 -16 -10 -6 4 -4 -4 3 -17 7 -13 16 -40 20 -59 6 -32 7 -33 8 -7 0
16 -4 38 -10 49 -8 15 -8 23 2 32 9 8 10 8 5 -1 -4 -7 -3 -13 1 -13 5 0 10
-14 11 -31 3 -40 10 -51 25 -42 8 4 7 1 -1 -9 -16 -20 3 -37 21 -19 9 9 7 11
-8 6 -16 -5 -17 -5 -5 3 19 14 30 6 25 -18 -2 -11 1 -23 7 -26 6 -4 8 -3 5 2
-3 6 -2 16 2 22 6 10 11 9 22 -4 8 -10 9 -15 2 -11 -14 9 -11 -19 4 -34 7 -7
17 -8 30 -1 12 7 25 7 36 1 11 -7 17 -7 17 0 0 6 7 8 15 5 8 -4 12 -11 9 -16
-7 -11 19 2 50 25 13 10 16 16 7 21 -7 5 5 23 38 52 27 24 73 76 103 115 41
54 55 67 62 55 8 -12 13 -10 29 11 16 20 17 27 7 36 -10 9 -11 9 -5 -2 5 -9 4
-12 -3 -7 -8 4 -10 2 -6 -7 3 -8 1 -18 -4 -21 -6 -3 -12 0 -14 7 -6 14 46 89
56 80 10 -10 7 -25 -3 -18 -5 3 -13 0 -17 -6 -4 -8 -3 -9 4 -5 7 4 12 2 12 -4
0 -7 16 12 35 41 22 32 32 56 27 61 -6 6 -13 5 -17 -3 -5 -8 -4 -10 3 -5 7 4
12 3 12 -2 0 -14 -11 -21 -26 -15 -10 4 -7 13 13 41 30 41 50 64 40 46 -3 -6
0 -11 8 -11 10 0 11 5 5 16 -5 11 0 25 17 46 14 17 22 25 19 18 -5 -10 1 -11
34 -3 3 0 -3 6 -12 14 -16 11 -13 17 30 62 59 61 132 119 132 105 0 -6 0 -14
0 -18 0 -5 -9 -9 -20 -9 -11 -1 -23 -4 -26 -7 -13 -13 42 -2 58 11 11 9 27 12
45 8 24 -5 25 -4 10 5 -10 6 -27 9 -38 6 -11 -3 -16 -1 -13 5 8 13 79 5 80
-10 1 -7 2 -16 3 -21 0 -6 10 -9 20 -8 11 0 17 5 15 9 -3 5 -10 5 -16 2 -7 -5
-8 -2 -3 6 6 9 4 11 -5 5 -9 -5 -11 -4 -6 3 10 16 8 16 42 -20 16 -17 22 -29
13 -25 -9 3 -16 0 -16 -8 0 -7 8 -12 18 -10 19 4 52 -27 55 -52 2 -11 -4 -9
-21 7 -14 13 -22 27 -19 31 3 5 -2 6 -10 3 -13 -5 -11 -10 7 -30 28 -30 69
-41 59 -16 -3 9 20 -6 52 -33 47 -41 54 -52 42 -60 -12 -10 -12 -13 5 -23 10
-7 19 -9 18 -5 -4 27 1 35 16 23 11 -9 12 -16 5 -25 -7 -8 -3 -17 13 -31 12
-10 17 -12 10 -5 -6 7 -9 19 -6 26 3 10 17 5 49 -18 39 -27 43 -33 29 -43 -14
-11 -14 -12 0 -18 9 -3 14 -2 11 3 -7 10 19 23 28 14 3 -4 1 -12 -5 -19 -19
-23 56 -62 130 -66 53 -3 65 -7 67 -22 3 -21 14 -35 14 -17 0 7 5 9 13 5 6 -4
2 4 -10 17 -18 20 -33 25 -84 27 -35 2 -72 10 -83 18 -11 8 -15 14 -8 14 18 0
27 -4 25 -11 -1 -3 19 -7 45 -8 26 -1 56 -3 67 -6 11 -2 23 -4 27 -4 3 -1 15
-16 27 -33 11 -18 21 -29 21 -24 0 5 7 3 15 -4 8 -7 15 -9 15 -5 0 4 7 1 17
-6 9 -8 18 -13 20 -11 1 1 4 2 6 1 1 0 9 -2 17 -4 8 -2 26 -7 40 -10 14 -3 34
-8 45 -10 11 -3 31 -8 45 -11 14 -3 99 -8 189 -10 138 -4 165 -2 175 10 7 11
16 13 26 6 12 -7 10 -11 -10 -18 -59 -22 -56 -20 -40 -21 25 -2 103 45 106 63
1 9 -2 14 -7 10 -5 -3 -7 -10 -4 -15 7 -10 -8 -13 -18 -3 -3 4 10 19 31 34 20
15 58 50 84 77 43 47 58 55 58 31 0 -5 -4 -7 -9 -3 -5 3 -12 2 -15 -3 -3 -5 2
-9 10 -9 8 0 24 18 35 40 11 21 16 36 11 33 -11 -7 -24 19 -14 28 3 4 7 12 8
19 2 7 5 23 8 38 5 20 -4 35 -49 79 -30 29 -52 58 -48 63 3 5 20 -6 39 -24 18
-18 31 -36 28 -40 -3 -5 2 -6 11 -3 13 5 9 13 -22 43 -37 35 -62 45 -74 29 -3
-5 -13 0 -23 11 -13 14 -14 21 -5 27 7 4 10 3 6 -2 -3 -5 3 -10 14 -10 10 0
19 1 19 2 0 8 -82 55 -87 50 -3 -3 -1 -6 6 -6 7 0 9 -4 6 -10 -3 -5 0 -7 8 -4
8 3 18 1 21 -4 12 -20 -22 -20 -43 -1 -12 11 -21 15 -21 9 0 -12 -472 -8 -520
4 -14 3 -35 8 -47 11 -13 3 -33 8 -45 11 -13 3 -30 7 -38 9 -8 2 -17 4 -20 5
-3 1 -8 2 -12 1 -5 0 -8 4 -8 10 0 5 -6 7 -12 3 -10 -5 -10 -4 -2 5 9 10 17
10 33 2 12 -7 21 -9 21 -7 0 15 -41 26 -60 16 -14 -8 -20 -8 -20 0 0 6 -6 10
-12 8 -7 -2 -13 2 -13 7 0 6 6 9 14 8 9 -1 10 2 3 9 -7 7 -17 6 -30 -1 -16 -8
-27 -5 -58 18 -48 35 -112 101 -98 101 5 0 10 10 11 23 2 19 1 20 -8 4 -14
-24 -32 -11 -19 14 15 26 3 44 -18 27 -13 -11 -14 -11 -7 2 5 8 10 33 10 55 1
23 6 39 13 38 6 -2 21 10 35 26 13 16 33 31 43 34 16 4 16 5 -3 6 -12 0 -27
-7 -32 -16 -6 -10 -11 -12 -11 -5 0 30 -3 28 41 31 11 0 18 5 15 9 -3 5 13 26
34 47 22 22 40 35 40 29 0 -12 38 -16 45 -4 2 4 -1 7 -8 6 -6 0 -12 4 -12 9 0
6 5 9 11 7 7 -1 16 3 20 9 5 8 3 9 -7 4 -12 -8 -12 -6 0 9 11 13 16 14 22 4 4
-6 5 -16 2 -21 -3 -5 6 -1 21 8 30 20 31 21 10 29 -8 3 -12 2 -9 -3 3 -5 1
-12 -4 -15 -5 -4 -8 1 -7 9 3 23 77 94 91 89 7 -3 16 0 21 7 5 8 3 10 -7 4
-12 -8 -12 -6 0 9 11 13 16 14 22 4 4 -6 5 -16 2 -21 -3 -5 11 2 30 15 28 18
33 25 21 31 -22 13 -6 29 17 17 15 -8 28 -5 59 12 22 13 40 26 40 31 0 4 -19
-4 -41 -19 -31 -19 -44 -23 -53 -14 -8 8 -7 9 7 4 12 -4 17 -2 15 7 -2 9 4 13
16 11 10 -2 15 1 11 7 -4 7 0 8 10 5 10 -4 15 -2 13 7 -3 15 4 15 37 3 l20 -7
-20 17 c-17 14 -17 15 -2 10 10 -4 17 -3 16 2 -4 21 2 24 24 13 21 -12 21 -11
7 6 -14 17 -14 18 5 8 26 -15 82 11 66 31 -13 16 -4 27 15 19 8 -3 11 -10 7
-16 -3 -6 -1 -7 6 -3 9 6 9 11 -1 24 -11 13 -11 14 8 4 16 -9 21 -8 21 3 0 8
-5 12 -11 9 -6 -3 0 3 14 14 17 15 29 18 42 11 23 -12 37 -11 15 2 -24 14 -12
32 13 19 25 -13 40 -12 17 1 -23 14 -12 32 12 20 13 -7 18 -6 18 4 0 8 -5 11
-11 8 -6 -4 -5 1 3 11 11 13 16 14 22 4 4 -6 5 -17 2 -23 -4 -5 4 -1 18 10 13
11 25 20 27 21 2 1 -4 4 -13 8 -11 4 -14 2 -9 -6 5 -7 3 -8 -5 -4 -9 6 -8 13
5 27 14 16 19 17 28 4 9 -11 14 -12 27 -2 16 12 23 51 7 41 -5 -3 -5 -10 -2
-16 5 -7 2 -8 -6 -3 -9 6 -11 4 -5 -5 6 -9 4 -11 -4 -5 -9 5 -6 15 13 34 15
15 23 30 19 34 -3 4 -1 7 6 7 7 0 9 5 5 12 -4 7 -3 8 5 4 6 -4 9 -17 6 -29 -4
-16 -1 -14 11 7 12 21 13 31 4 40 -8 8 -10 6 -5 -9 5 -15 4 -17 -3 -6 -14 20
-4 45 13 31 18 -15 32 7 16 23 -9 9 -11 7 -6 -8 5 -16 5 -17 -3 -5 -7 9 -7 19
-2 25 6 7 4 19 -5 31 -8 12 -10 26 -5 33 6 10 10 9 19 -5 6 -11 11 -14 11 -8
0 20 -59 74 -75 68 -8 -4 -15 -8 -15 -11 0 -3 7 -2 16 1 10 4 13 2 8 -6 -5 -7
-3 -8 6 -3 9 6 11 4 5 -5 -6 -9 -4 -11 5 -5 9 6 11 4 5 -5 -6 -9 -4 -11 5 -5
9 5 11 4 6 -3 -5 -8 -16 -5 -36 10 -23 17 -27 24 -18 35 9 11 8 13 -3 11 -8
-2 -17 -7 -20 -11 -8 -11 -71 62 -64 74 5 7 -20 13 -46 11 -3 -1 -6 5 -6 13 0
11 5 11 19 4 11 -6 24 -8 31 -5 7 2 5 5 -5 5 -9 1 -30 12 -47 27 -16 14 -34
25 -38 25 -4 -1 -9 4 -9 9 -1 6 -2 14 -3 20 -1 10 -36 9 -47 -2 -10 -10 -35 3
-27 15 3 6 1 7 -6 3 -9 -6 -9 -11 1 -24 12 -14 10 -14 -10 -3 -29 15 -48 5
-30 -17 10 -12 10 -14 1 -8 -7 4 -13 2 -13 -4 0 -8 -6 -8 -20 0 -34 18 -81 -6
-50 -25 6 -4 9 -1 8 6 -2 7 5 15 15 17 9 2 17 -2 17 -8 0 -6 -3 -9 -8 -6 -4 2
-7 -10 -6 -29 2 -32 1 -32 -40 -30 -33 1 -52 -6 -97 -36 -42 -29 -59 -35 -73
-27 -22 13 -74 -18 -58 -34 8 -8 -4 -22 -41 -48 -32 -22 -55 -32 -59 -26 -8
12 -1 26 13 26 6 0 7 -6 3 -12 -4 -7 -3 -9 1 -5 5 4 10 14 11 22 2 11 -2 12
-16 5 -21 -11 -33 -28 -36 -48 -1 -7 3 -9 9 -5 7 4 6 -1 -2 -11 -8 -9 -17 -13
-20 -9 -10 14 -28 12 -28 -2 0 -8 5 -11 11 -8 6 4 2 -3 -8 -15 -22 -25 -28
-27 -24 -9 2 6 1 14 -2 17 -9 9 -147 -97 -147 -113 0 -9 4 -14 9 -11 4 3 8 3
8 1 0 -3 -24 -23 -53 -45 -34 -25 -58 -37 -66 -32 -9 5 -10 10 -2 14 6 4 16 4
23 0 7 -5 8 -3 3 6 -5 8 -4 11 1 7 6 -3 16 -2 23 2 9 6 5 9 -13 9 -26 0 -49
-19 -52 -44 -1 -8 2 -12 7 -8 5 3 9 3 9 1 0 -10 -86 -61 -98 -59 -7 2 -11 -3
-10 -10 2 -8 -4 -12 -15 -10 -10 2 -16 -3 -15 -10 2 -7 -4 -12 -14 -10 -9 1
-20 -3 -24 -9 -5 -8 -3 -9 7 -4 12 8 12 6 0 -9 -8 -9 -17 -13 -20 -9 -9 12
-39 15 -45 4 -3 -5 1 -12 10 -15 10 -4 13 -2 8 6 -5 7 -3 8 5 3 9 -5 7 -13
-10 -31 -26 -28 -34 -30 -26 -9 12 31 -12 22 -59 -20 -47 -43 -49 -44 -56 -22
l-6 22 -1 -22 c-2 -37 19 -37 59 2 21 20 40 33 43 27 10 -16 -52 -67 -83 -68
l-29 -1 4 66 c3 58 9 101 15 109 2 1 4 7 5 12 1 6 4 12 5 15 1 3 4 10 5 15 1
6 4 13 5 18 1 4 2 12 0 17 -1 6 3 6 10 -1 7 -7 8 -19 1 -37 -16 -40 -4 -32 14
9 11 28 12 41 3 57 -10 19 -9 20 4 9 12 -10 17 -10 25 0 20 26 22 35 8 35 -8
0 -14 -3 -13 -6 0 -3 0 -13 -1 -21 -1 -13 -3 -13 -10 -1 -13 21 17 65 34 51
14 -12 27 1 32 29 1 10 -1 11 -10 2 -19 -19 -31 -12 -13 8 9 10 18 28 19 39 0
11 5 18 9 15 5 -2 6 -14 3 -26 -5 -18 -3 -17 9 4 8 14 16 36 18 50 2 13 7 30
12 38 7 10 5 12 -5 6 -8 -5 -5 1 5 13 21 24 32 29 20 10 -5 -7 -3 -8 6 -3 10
6 12 4 7 -8 -9 -24 0 -21 14 4 6 12 7 19 1 15 -5 -3 -12 1 -16 9 -3 8 -1 17 3
20 7 4 8 86 1 93 -1 1 -3 6 -4 11 0 5 -4 12 -8 16 -4 4 -4 14 -1 23 5 12 10 7
19 -19 7 -19 13 -29 13 -22 1 6 -4 24 -9 38 -9 24 -12 25 -27 14 -15 -13 -15
-12 -4 9 7 13 10 26 7 30 -11 10 -37 11 -30 1 3 -5 10 -7 15 -4 10 7 13 -8 3
-18 -4 -3 -19 11 -35 32 -34 48 -37 50 -83 53 -41 2 -61 25 -44 49 8 12 9 11
5 -2 -3 -9 -2 -22 3 -28 5 -9 8 -4 8 13 0 29 -13 43 -23 26 -5 -8 -12 -6 -24
4 -9 8 -30 17 -46 20 -17 2 -31 5 -32 6 -2 2 -7 4 -13 5 -5 1 -13 4 -17 5 -5
1 -11 2 -15 1 -5 0 -8 3 -8 8 0 5 -13 8 -30 6 -16 -2 -32 0 -35 6 -4 5 -12 9
-18 8 -8 0 -8 -2 1 -6z m-51 -104 c-16 -26 -32 -6 -17 21 9 17 14 19 20 10 5
-7 3 -21 -3 -31z m-43 -55 c3 -8 2 -12 -4 -9 -6 3 -10 10 -10 16 0 14 7 11 14
-7z m1551 4 c4 -3 2 -9 -3 -12 -5 -3 -15 1 -21 8 -10 11 -9 14 3 12 9 -1 18
-5 21 -8z m-90 -8 c3 -6 -1 -7 -9 -4 -18 7 -21 14 -7 14 6 0 13 -4 16 -10z
m135 -36 c5 -5 6 -15 1 -22 -5 -9 -14 -5 -31 13 l-24 25 22 -3 c12 -2 27 -8
32 -13z m-1666 -110 c4 -10 2 -13 -6 -8 -8 5 -9 1 -4 -12 5 -14 4 -16 -4 -8
-6 6 -8 18 -4 27 8 21 10 21 18 1z m1240 -22 c7 -12 -29 -31 -44 -22 -9 6 -8
10 6 19 23 13 31 13 38 3z m-702 -159 c-3 -18 -7 -21 -13 -12 -4 8 -4 18 1 23
4 4 6 16 3 25 -4 12 -3 13 5 3 5 -7 7 -25 4 -39z m449 -6 c-6 -8 -8 -16 -6
-19 9 -9 -101 -86 -113 -79 -7 4 15 27 56 58 71 55 81 61 63 40z m-553 -202
c-3 -3 -9 2 -12 12 -6 14 -5 15 5 6 7 -7 10 -15 7 -18z m1091 -111 c-25 -13
-43 -9 -34 6 3 5 13 6 22 3 11 -4 14 -3 9 5 -5 8 -2 10 10 5 14 -5 13 -8 -7
-19z m-229 -140 c0 -2 -9 -8 -19 -14 -16 -8 -19 -7 -16 8 2 9 4 18 4 19 1 4
31 -9 31 -13z m-401 -320 c-6 -7 -15 -12 -19 -9 -14 9 -27 -19 -24 -53 1 -18
-2 -34 -6 -37 -16 -10 -4 85 13 102 12 12 17 13 17 5 0 -7 5 -10 10 -7 6 4 7
11 4 17 -4 7 -2 8 5 4 9 -6 9 -11 0 -22z m-28 -137 c-10 -9 -11 -8 -5 6 3 10
9 15 12 12 3 -3 0 -11 -7 -18z m1142 -592 c-9 -16 -11 -16 -16 -1 -4 9 -2 16
4 16 6 0 7 6 3 13 -5 9 -4 9 6 0 8 -7 9 -16 3 -28z m-1865 -38 c-8 -15 -12
-17 -18 -6 -11 16 -5 26 14 26 12 0 13 -5 4 -20z m824 1 c-6 -6 -16 -7 -22 -3
-9 6 -9 9 1 16 17 10 34 0 21 -13z m853 -146 c-3 -3 -11 0 -18 7 -9 10 -8 11
6 5 10 -3 15 -9 12 -12z m-1985 -209 c-17 -12 -24 -13 -33 -4 -9 9 -8 11 6 5
10 -3 17 -3 16 2 -3 18 1 23 16 17 13 -5 12 -8 -5 -20z m-118 -5 c-6 -6 -16
-7 -22 -3 -9 6 -9 9 1 16 17 10 34 0 21 -13z"/>
<path d="M2636 3025 c-25 -20 -46 -38 -46 -41 0 -5 63 41 95 68 26 23 -8 3
-49 -27z"/>
<path d="M2021 3555 c3 -3 27 -9 53 -14 26 -5 44 -5 39 -1 -9 8 -100 24 -92
15z"/>
<path d="M2157 3468 c6 -10 35 -10 51 0 8 5 -1 8 -22 8 -19 -1 -32 -4 -29 -8z"/>
<path d="M2228 3439 c27 -31 56 -36 41 -7 -6 11 -16 17 -24 15 -7 -3 -19 0
-26 6 -8 7 -4 0 9 -14z"/>
<path d="M3286 3451 c-4 -5 3 -7 14 -4 23 6 26 13 6 13 -8 0 -17 -4 -20 -9z"/>
<path d="M1737 3371 c-4 -17 -3 -21 5 -13 5 5 8 16 6 23 -3 8 -7 3 -11 -10z"/>
<path d="M3150 3342 c0 -8 -14 -11 -42 -7 l-43 5 39 -10 c38 -10 69 0 53 17
-4 3 -7 1 -7 -5z"/>
<path d="M1716 3325 c-9 -26 -7 -32 5 -12 6 10 9 21 6 23 -2 3 -7 -2 -11 -11z"/>
<path d="M3457 3327 c-3 -8 1 -14 8 -14 7 0 11 6 8 14 -3 7 -6 13 -8 13 -2 0
-5 -6 -8 -13z"/>
<path d="M3030 3320 c-11 -7 -11 -10 -2 -10 8 0 10 -5 6 -12 -4 -7 -3 -9 1 -5
7 6 17 37 12 37 -1 0 -9 -5 -17 -10z"/>
<path d="M2976 3285 c-11 -8 -14 -15 -7 -15 7 0 9 -5 5 -12 -4 -8 -3 -10 2 -5
5 5 9 14 9 20 0 5 6 12 14 15 9 3 11 0 6 -8 -5 -9 -4 -11 4 -6 11 7 6 26 -7
26 -4 0 -16 -7 -26 -15z"/>
<path d="M3474 3282 c11 -12 20 -22 20 -22 1 0 2 10 3 23 0 12 -1 16 -4 9 -4
-10 -8 -10 -21 0 -12 9 -11 6 2 -10z"/>
<path d="M2332 3255 c0 -16 2 -22 5 -12 2 9 2 23 0 30 -3 6 -5 -1 -5 -18z"/>
<path d="M1659 3218 c-1 -7 -1 -18 0 -24 1 -7 -6 -11 -15 -10 -9 0 -19 -4 -21
-10 -2 -6 4 -11 12 -11 18 0 58 51 48 61 -10 10 -23 7 -24 -6z"/>
<path d="M2327 3201 c-4 -17 -3 -21 5 -13 5 5 8 16 6 23 -3 8 -7 3 -11 -10z"/>
<path d="M2868 3213 c6 -2 9 -10 6 -15 -4 -7 -2 -8 5 -4 13 9 5 26 -12 25 -9
0 -8 -2 1 -6z"/>
<path d="M2843 3185 c0 -8 4 -12 9 -9 5 3 6 10 3 15 -9 13 -12 11 -12 -6z"/>
<path d="M3617 3139 c4 -13 8 -18 11 -10 2 7 -1 18 -6 23 -8 8 -9 4 -5 -13z"/>
<path d="M1610 3109 c-6 -24 -14 -53 -17 -64 -3 -11 -2 -17 1 -14 9 9 37 112
31 117 -2 2 -9 -16 -15 -39z"/>
<path d="M1578 2997 c-3 -19 -2 -25 4 -19 6 6 8 18 6 28 -3 14 -5 12 -10 -9z"/>
<path d="M2531 2963 c3 -19 -2 -27 -10 -14 -5 8 -11 9 -15 3 -9 -16 21 -22 34
-7 8 9 8 15 0 20 -6 4 -10 3 -9 -2z"/>
<path d="M1563 2945 c-3 -9 -3 -18 -1 -21 3 -3 8 4 11 16 6 23 -1 27 -10 5z"/>
<path d="M1546 2895 c-9 -26 -7 -32 5 -12 6 10 9 21 6 23 -2 3 -7 -2 -11 -11z"/>
<path d="M2413 2865 c0 -8 4 -12 9 -9 5 3 6 10 3 15 -9 13 -12 11 -12 -6z"/>
<path d="M1526 2845 c-3 -9 -6 -22 -5 -28 0 -7 5 -1 10 12 5 13 8 26 5 28 -2
2 -6 -3 -10 -12z"/>
<path d="M2360 2845 c-11 -13 -10 -14 5 -9 14 6 16 4 10 -7 -8 -12 -6 -12 8 0
9 7 14 17 11 22 -8 13 -20 11 -34 -6z"/>
<path d="M3335 2841 c-6 -11 13 -26 22 -17 4 3 1 6 -6 6 -7 0 -9 5 -6 10 3 6
4 10 1 10 -3 0 -7 -4 -11 -9z"/>
<path d="M1496 2767 c-18 -44 -30 -83 -23 -77 8 8 47 110 42 110 -3 0 -11 -15
-19 -33z"/>
<path d="M2109 2773 c-5 -14 -8 -30 -6 -36 1 -5 8 7 14 27 13 42 7 49 -8 9z"/>
<path d="M3166 2727 c3 -10 9 -15 12 -12 3 3 0 11 -7 18 -10 9 -11 8 -5 -6z"/>
<path d="M2095 2709 c-4 -6 -5 -12 -2 -15 2 -3 7 2 10 11 7 17 1 20 -8 4z"/>
<path d="M2154 2658 l-29 -33 33 29 c30 28 37 36 29 36 -2 0 -16 -15 -33 -32z"/>
<path d="M1446 2635 c-9 -26 -7 -32 5 -12 6 10 9 21 6 23 -2 3 -7 -2 -11 -11z"/>
<path d="M1416 2560 c-22 -56 -19 -65 5 -11 11 24 18 46 15 48 -2 2 -11 -14
-20 -37z"/>
<path d="M2879 2543 c-18 -20 -27 -32 -18 -25 9 6 19 9 22 5 4 -3 19 6 34 21
19 19 21 25 8 20 -13 -5 -16 -4 -11 4 13 22 0 12 -35 -25z m31 13 c0 -2 -8
-10 -17 -17 -16 -13 -17 -12 -4 4 13 16 21 21 21 13z"/>
<path d="M1376 2455 c-9 -26 -7 -32 5 -12 6 10 9 21 6 23 -2 3 -7 -2 -11 -11z"/>
<path d="M2707 2402 c-20 -21 -24 -31 -16 -42 9 -13 10 -12 5 2 -3 10 -1 20 4
23 4 3 10 0 12 -6 2 -5 14 2 28 16 20 21 21 25 6 19 -14 -5 -17 -4 -12 4 12
20 1 13 -27 -16z"/>
<path d="M1346 2373 c-9 -26 -12 -43 -7 -38 11 13 32 77 27 82 -2 2 -11 -17
-20 -44z"/>
<path d="M1323 2303 c-3 -10 -8 -22 -11 -27 -3 -5 0 -6 5 -3 11 7 25 47 17 47
-3 0 -7 -8 -11 -17z"/>
<path d="M1289 2203 c-5 -14 -9 -33 -7 -41 2 -9 8 3 14 26 13 47 9 56 -7 15z"/>
<path d="M1262 2090 c0 -14 2 -19 5 -12 2 6 2 18 0 25 -3 6 -5 1 -5 -13z"/>
<path d="M2647 2078 c33 -35 90 -78 78 -59 -5 9 -3 12 6 9 8 -3 13 -11 11 -17
-1 -7 2 -9 9 -5 17 10 -28 45 -48 37 -11 -4 -14 -2 -9 5 9 15 -30 57 -55 58
-18 1 -17 -2 8 -28z m23 -3 c13 -14 21 -25 18 -25 -2 0 -15 11 -28 25 -13 14
-21 25 -18 25 2 0 15 -11 28 -25z"/>
<path d="M1251 2044 c0 -11 3 -14 6 -6 3 7 2 16 -1 19 -3 4 -6 -2 -5 -13z"/>
<path d="M1246 2008 c-9 -29 -16 -81 -10 -75 8 7 23 87 17 87 -2 0 -5 -6 -7
-12z"/>
<path d="M2898 1948 c6 -6 18 -8 28 -6 14 3 12 5 -9 10 -19 3 -25 2 -19 -4z"/>
<path d="M2965 1930 c27 -12 43 -12 25 0 -8 5 -22 9 -30 9 -10 0 -8 -3 5 -9z"/>
<path d="M3507 1926 c-3 -8 -16 -17 -29 -19 -17 -3 -14 -4 8 -4 21 1 30 6 31
19 2 22 -3 23 -10 4z"/>
<path d="M3020 1920 c8 -5 26 -10 39 -10 32 0 24 6 -19 14 -25 4 -31 3 -20 -4z"/>
<path d="M1217 1906 c-9 -24 -9 -28 3 -21 6 3 11 -4 11 -17 1 -14 3 -17 6 -7
2 8 0 26 -5 39 -7 20 -9 21 -15 6z"/>
<path d="M3105 1910 c19 -8 113 -14 104 -6 -2 2 -31 6 -64 9 -36 3 -52 2 -40
-3z"/>
<path d="M3243 1903 c15 -2 39 -2 55 0 15 2 2 4 -28 4 -30 0 -43 -2 -27 -4z"/>
<path d="M3358 1903 c17 -2 47 -2 65 0 17 2 3 4 -33 4 -36 0 -50 -2 -32 -4z"/>
<path d="M2041 1806 c-41 -41 -47 -52 -32 -53 17 -1 33 17 35 41 1 5 9 10 20
12 26 4 59 41 42 47 -7 3 -36 -18 -65 -47z m59 41 c0 -2 -10 -12 -22 -23 l-23
-19 19 23 c18 21 26 27 26 19z m-60 -61 c0 -2 -8 -10 -17 -17 -16 -13 -17 -12
-4 4 13 16 21 21 21 13z"/>
<path d="M1202 1841 c-11 -7 -11 -9 0 -14 9 -3 15 1 15 9 0 8 -1 14 -1 14 -1
0 -7 -4 -14 -9z"/>
<path d="M3650 1827 c0 -2 15 -16 33 -33 l32 -29 -29 33 c-28 30 -36 37 -36
29z"/>
<path d="M1191 1804 c0 -11 3 -14 6 -6 3 7 2 16 -1 19 -3 4 -6 -2 -5 -13z"/>
<path d="M2330 1806 c0 -2 8 -10 18 -17 15 -13 16 -12 3 4 -13 16 -21 21 -21
13z"/>
<path d="M2404 1728 c1 -17 8 -23 24 -24 l23 -1 -22 23 c-27 29 -27 29 -25 2z"/>
<path d="M3762 1710 c0 -19 2 -27 5 -17 2 9 2 25 0 35 -3 9 -5 1 -5 -18z"/>
<path d="M1939 1684 c-9 -12 -10 -15 -1 -10 7 4 12 2 12 -5 0 -10 3 -10 12 -1
8 8 9 15 2 22 -8 8 -15 6 -25 -6z"/>
<path d="M1893 1617 c-3 -6 -1 -7 5 -3 5 3 12 1 14 -6 3 -8 6 -7 10 3 7 17
-19 22 -29 6z"/>
<path d="M2585 1601 c6 -11 4 -13 -9 -8 -9 4 -15 3 -12 -2 3 -5 17 -8 31 -8
14 0 25 0 23 1 -2 1 -12 8 -22 16 -17 13 -18 13 -11 1z"/>
<path d="M1224 1556 c1 -8 5 -18 8 -22 4 -3 5 1 4 10 -1 8 -5 18 -8 22 -4 3
-5 -1 -4 -10z"/>
<path d="M3644 1489 c-22 -23 -23 -27 -8 -25 11 2 19 9 19 17 0 8 5 14 12 14
7 0 17 5 23 11 8 8 6 11 -4 11 -9 0 -27 -13 -42 -28z"/>
<path d="M3593 1448 c-13 -22 -13 -42 0 -29 10 10 19 41 12 41 -2 0 -7 -6 -12
-12z"/>
<path d="M1221 1445 c1 -19 18 -51 18 -35 0 8 -4 22 -9 30 -5 8 -9 11 -9 5z"/>
<path d="M1733 1386 c-20 -27 -27 -43 -18 -42 25 4 53 36 53 61 0 14 -1 25 -2
25 0 -1 -15 -20 -33 -44z m17 -5 c-5 -11 -15 -23 -21 -27 -6 -3 -3 5 6 20 20
30 30 35 15 7z"/>
<path d="M2905 1420 c3 -4 14 -10 25 -13 11 -3 18 -2 15 3 -3 4 -14 10 -25 13
-11 3 -18 2 -15 -3z"/>
<path d="M2967 1399 c7 -7 15 -10 18 -7 3 3 -2 9 -12 12 -14 6 -15 5 -6 -5z"/>
<path d="M3007 1389 c7 -7 15 -10 18 -7 3 3 -2 9 -12 12 -14 6 -15 5 -6 -5z"/>
<path d="M1251 1374 c0 -11 3 -14 6 -6 3 7 2 16 -1 19 -3 4 -6 -2 -5 -13z"/>
<path d="M3045 1379 c3 -4 18 -9 34 -11 17 -2 28 -1 26 3 -3 4 -18 9 -34 11
-17 2 -28 1 -26 -3z"/>
<path d="M3138 1363 c12 -2 30 -2 40 0 9 3 -1 5 -23 4 -22 0 -30 -2 -17 -4z"/>
<path d="M3208 1353 c7 -3 16 -2 19 1 4 3 -2 6 -13 5 -11 0 -14 -3 -6 -6z"/>
<path d="M3248 1353 c6 -2 18 -2 25 0 6 3 1 5 -13 5 -14 0 -19 -2 -12 -5z"/>
<path d="M3303 1353 c9 -2 25 -2 35 0 9 3 1 5 -18 5 -19 0 -27 -2 -17 -5z"/>
<path d="M3368 1353 c7 -3 16 -2 19 1 4 3 -2 6 -13 5 -11 0 -14 -3 -6 -6z"/>
<path d="M3408 1353 c6 -2 18 -2 25 0 6 3 1 5 -13 5 -14 0 -19 -2 -12 -5z"/>
<path d="M1669 1303 c-13 -14 -18 -23 -11 -19 7 4 12 2 12 -5 0 -9 3 -9 14 0
11 9 19 51 11 51 -1 0 -12 -12 -26 -27z"/>
<path d="M1643 1255 c0 -8 4 -12 9 -9 5 3 6 10 3 15 -9 13 -12 11 -12 -6z"/>
<path d="M1598 1236 c-19 -17 -23 -26 -14 -29 19 -8 41 9 42 33 1 11 1 20 0
20 0 0 -13 -11 -28 -24z m22 0 c0 -2 -8 -10 -17 -17 -16 -13 -17 -12 -4 4 13
16 21 21 21 13z"/>
<path d="M1460 1150 c8 -5 22 -9 30 -9 10 0 8 3 -5 9 -27 12 -43 12 -25 0z"/>
<path d="M3904 528 l-19 -23 23 19 c12 11 22 21 22 23 0 8 -8 2 -26 -19z"/>
<path d="M4010 456 c0 -2 7 -7 16 -10 8 -3 12 -2 9 4 -6 10 -25 14 -25 6z"/>
<path d="M3971 433 c7 -12 15 -20 18 -17 3 2 -3 12 -13 22 -17 16 -18 16 -5
-5z"/>
<path d="M4782 445 c4 -4 3 -17 -3 -28 -7 -11 -7 -17 -1 -13 5 3 15 -1 22 -9
7 -8 18 -15 24 -15 6 0 3 5 -6 11 -10 5 -18 19 -18 29 0 10 -6 22 -12 26 -7 4
-10 4 -6 -1z"/>
<path d="M3870 405 c0 -8 5 -15 11 -15 5 0 7 5 4 10 -9 14 8 12 25 -2 12 -11
12 -10 1 5 -16 21 -41 22 -41 2z"/>
<path d="M3999 393 c-8 -9 -9 -14 -2 -10 7 4 13 0 16 -10 3 -11 5 -8 6 10 1
32 -2 33 -20 10z"/>
<path d="M3940 385 c-7 -9 -8 -15 -2 -15 5 0 12 7 16 15 3 8 4 15 2 15 -2 0
-9 -7 -16 -15z"/>
<path d="M4781 374 c0 -11 3 -14 6 -6 3 7 2 16 -1 19 -3 4 -6 -2 -5 -13z"/>
<path d="M4825 373 c-16 -3 -20 -11 -18 -41 1 -20 2 -37 4 -37 8 0 4 -77 -5
-82 -18 -12 -45 -13 -51 -4 -3 5 6 8 20 7 14 -2 22 1 18 7 -3 6 -2 8 3 4 5 -3
10 10 10 28 0 19 -3 32 -7 29 -4 -2 -10 4 -12 13 -4 14 -5 13 -6 -4 0 -13 4
-23 9 -23 12 0 13 -10 2 -28 -12 -18 -54 -24 -64 -9 -6 9 -8 9 -8 0 0 -7 -4
-13 -10 -13 -5 0 -9 6 -7 13 1 7 -9 12 -26 12 -21 -1 -26 3 -22 15 10 25 10
28 0 28 -5 0 -9 -4 -7 -9 1 -6 -2 -18 -8 -28 -9 -17 -6 -18 26 -14 25 3 34 1
30 -6 -4 -6 -18 -9 -31 -7 -13 2 -26 2 -29 -2 -4 -3 -17 -7 -29 -9 -17 -2 -19
-1 -7 6 8 5 18 7 22 5 11 -7 -4 29 -18 43 -6 7 -14 9 -18 6 -11 -11 -6 -23 9
-23 8 0 15 -5 15 -10 0 -14 -32 -8 -45 8 -9 11 -18 11 -54 0 -23 -7 -47 -21
-52 -30 -11 -21 -35 -24 -42 -5 -4 9 -6 9 -6 0 -1 -8 -18 -13 -48 -14 -27 -1
-38 -4 -26 -6 13 -3 20 -10 17 -18 -3 -7 0 -16 6 -20 13 -8 42 14 34 26 -3 5
0 9 6 9 7 0 9 -7 6 -16 -3 -8 -2 -12 3 -9 5 3 13 0 17 -6 4 -7 3 -9 -4 -5 -6
3 -13 2 -16 -3 -4 -5 -20 -8 -36 -6 -17 2 -29 1 -26 -3 3 -4 -29 -8 -70 -9
-60 0 -74 2 -70 13 3 8 1 14 -4 14 -14 0 -12 -23 3 -39 10 -11 10 -13 0 -7 -7
4 -13 2 -13 -4 0 -6 -4 -9 -10 -5 -5 3 -7 13 -4 23 4 10 2 13 -3 7 -4 -6 -19
-12 -33 -13 -14 0 -26 -6 -28 -12 -2 -6 -16 -1 -33 11 -22 15 -27 17 -23 5 5
-12 0 -16 -19 -16 -14 0 -27 4 -29 9 -1 5 -9 3 -16 -5 -11 -12 -4 -13 42 -10
51 4 55 2 53 -16 -3 -31 16 -32 47 -3 29 27 46 34 27 12 -6 -8 -7 -17 -3 -21
4 -4 2 -7 -3 -6 -20 4 -36 0 -31 -8 3 -5 -8 -8 -23 -8 -23 0 -28 4 -27 21 3
19 -2 21 -61 19 -34 -1 -65 2 -68 7 -4 5 2 6 12 3 11 -4 14 -3 7 3 -6 4 -14
15 -17 23 -4 12 -6 12 -6 -1 -1 -9 -8 -19 -16 -23 -8 -3 -15 -12 -15 -21 0
-17 -16 -20 -23 -5 -3 6 -4 5 -3 -2 4 -21 27 -21 33 1 6 24 20 28 20 6 0 -8
-4 -15 -9 -15 -5 0 -6 -5 -3 -10 4 -6 1 -9 -7 -8 -7 2 -12 -4 -10 -12 3 -11
-2 -10 -17 5 -26 22 -45 9 -38 -26 4 -22 4 -22 6 4 0 15 5 27 10 27 15 0 23
-18 11 -25 -5 -3 -10 -10 -10 -16 0 -5 219 -9 565 -9 l566 0 -2 132 c-1 148
-4 159 -27 150 -14 -5 -15 -3 -5 9 8 10 9 19 1 29 -8 12 -9 12 -4 -3 4 -12 -1
-21 -17 -27 -17 -7 -18 -9 -4 -9 9 -1 17 -5 17 -10 0 -5 -15 -6 -32 -2 -18 4
-36 8 -40 9 -11 3 -11 12 -2 20 4 4 5 2 1 -3 -3 -6 4 -12 15 -12 20 -2 20 -1
2 12 -13 9 -24 10 -38 3 -12 -7 -16 -7 -12 0 3 6 2 13 -4 17 -6 4 -8 11 -5 16
4 5 2 9 -4 9 -6 0 -7 8 -4 17 5 13 9 9 19 -18 12 -32 12 -33 11 -6 -2 33 -14
44 -42 40z m-265 -140 c0 -15 -16 -17 -23 -3 -3 6 -4 5 -3 -2 2 -7 13 -12 25
-11 11 2 21 -1 21 -5 0 -5 -13 -8 -29 -8 -17 0 -29 3 -28 7 1 4 -2 6 -8 6 -5
-1 -10 -16 -9 -33 1 -27 -2 -30 -27 -30 -15 0 -27 4 -26 10 1 6 -5 10 -14 8
-9 -1 -19 4 -22 12 -4 9 0 12 13 9 10 -3 24 3 31 14 23 31 99 51 99 26z m144
-37 c-7 -18 15 -31 28 -18 8 8 7 16 -2 27 -11 13 -10 14 3 9 10 -3 16 -16 15
-28 -2 -17 -8 -22 -30 -22 -15 0 -26 2 -23 4 2 3 0 12 -5 22 -10 18 -3 33 11
24 4 -2 6 -11 3 -18z m26 -6 c0 -5 -4 -10 -10 -10 -5 0 -10 5 -10 10 0 6 5 10
10 10 6 0 10 -4 10 -10z m-354 -27 c-10 -10 -19 5 -10 18 6 11 8 11 12 0 2 -7
1 -15 -2 -18z m-232 -58 c-7 -16 -24 -21 -24 -6 0 8 7 13 27 20 1 1 0 -6 -3
-14z m-34 -25 c0 -5 -4 -10 -10 -10 -5 0 -10 5 -10 10 0 6 5 10 10 10 6 0 10
-4 10 -10z"/>
<path d="M4485 198 c3 -16 0 -28 -8 -31 -9 -4 -9 -6 0 -6 19 -1 24 15 13 41
-10 22 -10 22 -5 -4z"/>
<path d="M4030 354 c-11 -12 -11 -15 0 -12 8 2 14 -5 15 -17 0 -12 8 -21 20
-23 33 -6 38 -19 6 -17 -25 1 -28 -1 -18 -16 10 -16 12 -16 25 -1 12 16 13 15
7 -3 -6 -19 -5 -19 14 2 13 14 28 19 41 16 12 -3 20 0 20 6 0 7 5 9 10 6 6 -3
10 -1 10 5 0 7 -8 9 -20 5 -13 -4 -20 -2 -20 7 0 8 -4 6 -11 -4 -14 -24 -23
-23 -39 6 -7 13 -21 27 -32 29 -11 3 -17 10 -13 16 10 16 -1 13 -15 -5z m45
-34 c3 -5 -1 -10 -9 -10 -9 0 -16 5 -16 10 0 6 4 10 9 10 6 0 13 -4 16 -10z"/>
<path d="M4791 334 c0 -11 3 -14 6 -6 3 7 2 16 -1 19 -3 4 -6 -2 -5 -13z"/>
<path d="M4001 339 c-1 -4 6 -22 13 -40 l15 -34 -2 32 c-1 17 -5 29 -9 27 -3
-2 -9 2 -11 8 -3 7 -6 10 -6 7z"/>
<path d="M4530 291 c0 -25 6 -27 13 -6 4 8 2 17 -3 20 -6 4 -10 -3 -10 -14z"/>
<path d="M4740 284 c0 -8 5 -12 10 -9 6 4 8 11 5 16 -9 14 -15 11 -15 -7z"/>
<path d="M4308 181 c28 -25 28 -29 -3 -27 -14 0 -25 6 -25 13 0 6 -4 14 -9 17
-5 3 -8 -2 -7 -11 0 -10 -8 -19 -18 -21 -14 -3 -17 0 -13 11 3 9 -1 17 -14 20
-15 4 -17 2 -9 -13 5 -9 7 -19 5 -22 -3 -2 23 -4 57 -3 69 1 83 14 41 39 l-28
17 23 -20z"/>
<path d="M3727 25 c-4 -8 -3 -16 1 -19 4 -3 9 4 9 15 2 23 -3 25 -10 4z"/>
<path d="M3775 30 c-3 -5 -1 -10 4 -10 6 0 11 5 11 10 0 6 -2 10 -4 10 -3 0
-8 -4 -11 -10z"/>
</g>
</svg>
